<svg xmlns="http://www.w3.org/2000/svg" xmlns:xlink="http://www.w3.org/1999/xlink" id="Ebene_1" x="0" y="0" version="1.1" viewBox="0 0 50 50" xml:space="preserve" style="enable-background:new 0 0 50 50"><style type="text/css">.st0,.st1{stroke-width:15}.st0,.st1,.st2{fill:none;stroke-linecap:round;stroke-miterlimit:10}.st0{opacity:.2;stroke:#000}.st1,.st2{stroke:#e00083;stroke-linejoin:round}.st2{stroke-width:10}.st3{fill:#e00083}.st4{opacity:.2}.st5,.st6{fill:none;stroke:#000;stroke-width:15;stroke-linecap:round;stroke-miterlimit:10}.st6{stroke-linejoin:round}.st7{opacity:.4}</style><line id="XMLID_7_" x1="1516.12" x2="1471.88" y1="811.85" y2="786.29" class="st0"/><line id="XMLID_1_" x1="1686.44" x2="1686.44" y1="659.94" y2="709.94" class="st0"/><line id="XMLID_9_" x1="1582.41" x2="1585.57" y1="580.21" y2="585.7" class="st0"/><polyline id="XMLID_17_" points="1427.44 671.94 1427.44 610.93 1558.19 536.1 1687.07 610.97" class="st1"/><line id="XMLID_11_" x1="1428.44" x2="1428.44" y1="732.94" y2="706.94" class="st1"/><path id="XMLID_18_" d="M1427.94,760.61" class="st2"/><line id="XMLID_16_" x1="1686.94" x2="1557.44" y1="760.61" y2="835.44" class="st1"/><line id="XMLID_12_" x1="1599.65" x2="1661.47" y1="609.61" y2="716.78" class="st0"/><line id="XMLID_15_" x1="1492.69" x2="1557.44" y1="648.69" y2="536.43" class="st1"/><line id="XMLID_13_" x1="1460.66" x2="1474.11" y1="705.36" y2="682.04" class="st0"/><line id="XMLID_10_" x1="1686.94" x2="1427.94" y1="761.44" y2="761.44" class="st1"/><path id="XMLID_20_" d="M1557.44,564.56c-15.56,0-28.13-12.57-28.13-28.13s12.57-28.13,28.13-28.13	s28.13,12.57,28.13,28.13S1573,564.56,1557.44,564.56" class="st3"/><path id="XMLID_14_" d="M1427.94,637.87c-15.56,0-28.13-12.57-28.13-28.13s12.57-28.13,28.13-28.13	s28.13,12.57,28.13,28.13S1443.5,637.87,1427.94,637.87" class="st3"/><path id="XMLID_19_" d="M1427.94,789.07c-15.56,0-28.13-12.57-28.13-28.13s12.57-28.13,28.13-28.13	s28.13,12.57,28.13,28.13S1443.5,789.07,1427.94,789.07" class="st3"/><path id="XMLID_26_" d="M1557.44,863.57c-15.56,0-28.13-12.57-28.13-28.13s12.57-28.13,28.13-28.13	s28.13,12.57,28.13,28.13S1573,863.57,1557.44,863.57" class="st3"/><path id="XMLID_27_" d="M1686.94,789.07c-15.56,0-28.13-12.57-28.13-28.13s12.57-28.13,28.13-28.13	s28.13,12.57,28.13,28.13S1702.5,789.07,1686.94,789.07" class="st3"/><path id="XMLID_28_" d="M1686.94,637.87c-15.56,0-28.13-12.57-28.13-28.13s12.57-28.13,28.13-28.13	s28.13,12.57,28.13,28.13S1702.5,637.87,1686.94,637.87" class="st3"/><g id="XMLID_181_"><g id="XMLID_36_" class="st4"><g id="XMLID_40_"><line id="XMLID_42_" x1="-2341.4" x2="-2389.71" y1="677" y2="649.08" class="st5"/><line id="XMLID_41_" x1="-2173.56" x2="-2173.56" y1="522.94" y2="574.94" class="st5"/></g><g id="XMLID_37_"><line id="XMLID_39_" x1="-2200.68" x2="-2198.24" y1="576.68" y2="580.92" class="st5"/><line id="XMLID_38_" x1="-2277.91" x2="-2273.93" y1="442.81" y2="449.71" class="st5"/></g></g><polyline id="XMLID_35_" points="-2432.56 535.94 -2432.56 474.94 -2301.56 400.1 -2172.81 474.97" class="st1"/><line id="XMLID_34_" x1="-2431.56" x2="-2431.56" y1="596.94" y2="570.94" class="st1"/><path id="XMLID_33_" d="M-2431.56,624.61" class="st2"/><line id="XMLID_32_" x1="-2172.56" x2="-2302.06" y1="624.61" y2="699.45" class="st1"/><line id="XMLID_31_" x1="-2259.85" x2="-2213.27" y1="473.62" y2="554.36" class="st1"/><line id="XMLID_30_" x1="-2366.81" x2="-2302.06" y1="512.69" y2="400.44" class="st1"/><line id="XMLID_29_" x1="-2398.84" x2="-2385.39" y1="569.36" y2="546.04" class="st1"/><line id="XMLID_25_" x1="-2172.06" x2="-2431.06" y1="625.44" y2="625.44" class="st1"/><path id="XMLID_24_" d="M-2302.06,428.57c-15.56,0-28.13-12.57-28.13-28.13s12.57-28.13,28.13-28.13 c15.56,0,28.13,12.57,28.13,28.13S-2286.5,428.57-2302.06,428.57" class="st3"/><path id="XMLID_23_" d="M-2431.56,501.87c-15.56,0-28.13-12.57-28.13-28.13s12.57-28.13,28.13-28.13 s28.13,12.57,28.13,28.13C-2403.43,489.3-2416,501.87-2431.56,501.87" class="st3"/><path id="XMLID_22_" d="M-2431.56,653.08c-15.56,0-28.13-12.57-28.13-28.13s12.57-28.13,28.13-28.13 s28.13,12.57,28.13,28.13S-2416,653.08-2431.56,653.08" class="st3"/><path id="XMLID_21_" d="M-2302.06,727.58c-15.56,0-28.13-12.57-28.13-28.13s12.57-28.13,28.13-28.13 s28.13,12.57,28.13,28.13S-2286.5,727.58-2302.06,727.58" class="st3"/><path id="XMLID_6_" d="M-2172.56,653.08c-15.56,0-28.13-12.57-28.13-28.13s12.57-28.13,28.13-28.13 s28.13,12.57,28.13,28.13S-2157,653.08-2172.56,653.08" class="st3"/><path id="XMLID_4_" d="M-2172.56,501.87c-15.56,0-28.13-12.57-28.13-28.13s12.57-28.13,28.13-28.13 s28.13,12.57,28.13,28.13C-2144.43,489.3-2157,501.87-2172.56,501.87" class="st3"/></g><g id="XMLID_208_"><line id="XMLID_55_" x1="-1295.38" x2="-1339.62" y1="675.86" y2="650.29" class="st0"/><line id="XMLID_54_" x1="-1125.56" x2="-1125.56" y1="523.94" y2="573.94" class="st0"/><line id="XMLID_53_" x1="-1229.09" x2="-1225.93" y1="444.22" y2="449.71" class="st0"/><polyline id="XMLID_52_" points="-1384.56 535.94 -1384.56 474.94 -1253.56 400.1 -1124.81 474.97" class="st1"/><line id="XMLID_51_" x1="-1383.56" x2="-1383.56" y1="596.94" y2="570.94" class="st1"/><path id="XMLID_50_" d="M-1383.56,624.61" class="st2"/><line id="XMLID_49_" x1="-1124.56" x2="-1254.06" y1="624.61" y2="699.45" class="st1"/><line id="XMLID_48_" x1="-1211.85" x2="-1150.03" y1="473.62" y2="580.79" class="st1"/><line id="XMLID_47_" x1="-1318.81" x2="-1254.06" y1="512.69" y2="400.44" class="st1"/><line id="XMLID_46_" x1="-1350.84" x2="-1337.39" y1="569.36" y2="546.04" class="st1"/><line id="XMLID_45_" x1="-1124.06" x2="-1383.06" y1="625.44" y2="625.44" class="st1"/><path id="XMLID_44_" d="M-1254.06,428.57c-15.56,0-28.13-12.57-28.13-28.13s12.57-28.13,28.13-28.13 s28.13,12.57,28.13,28.13S-1238.5,428.57-1254.06,428.57" class="st3"/><path id="XMLID_43_" d="M-1383.56,501.87c-15.56,0-28.13-12.57-28.13-28.13s12.57-28.13,28.13-28.13 s28.13,12.57,28.13,28.13C-1355.43,489.3-1368,501.87-1383.56,501.87" class="st3"/><path id="XMLID_8_" d="M-1383.56,653.08c-15.56,0-28.13-12.57-28.13-28.13s12.57-28.13,28.13-28.13 s28.13,12.57,28.13,28.13S-1368,653.08-1383.56,653.08" class="st3"/><path id="XMLID_5_" d="M-1254.06,727.58c-15.56,0-28.13-12.57-28.13-28.13s12.57-28.13,28.13-28.13 s28.13,12.57,28.13,28.13S-1238.5,727.58-1254.06,727.58" class="st3"/><path id="XMLID_3_" d="M-1124.56,653.08c-15.56,0-28.13-12.57-28.13-28.13s12.57-28.13,28.13-28.13 s28.13,12.57,28.13,28.13S-1109,653.08-1124.56,653.08" class="st3"/><path id="XMLID_56_" d="M-1124.56,501.87c-15.56,0-28.13-12.57-28.13-28.13s12.57-28.13,28.13-28.13 s28.13,12.57,28.13,28.13C-1096.43,489.3-1109,501.87-1124.56,501.87" class="st3"/></g><g id="XMLID_209_"><line id="XMLID_72_" x1="-2343.38" x2="-2387.62" y1="1703.36" y2="1677.79" class="st0"/><line id="XMLID_71_" x1="-2173.56" x2="-2173.56" y1="1550.94" y2="1600.94" class="st0"/><line id="XMLID_70_" x1="-2277.09" x2="-2273.93" y1="1471.72" y2="1477.21" class="st0"/><polyline id="XMLID_69_" points="-2432.56 1562.94 -2432.56 1502.44 -2301.56 1427.6 -2172.81 1502.22" class="st1"/><line id="XMLID_68_" x1="-2431.56" x2="-2431.56" y1="1623.94" y2="1597.94" class="st1"/><path id="XMLID_67_" d="M-2431.56,1652.11" class="st2"/><line id="XMLID_66_" x1="-2172.56" x2="-2302.06" y1="1652.11" y2="1726.95" class="st1"/><line id="XMLID_65_" x1="-2259.85" x2="-2198.03" y1="1501.12" y2="1608.29" class="st1"/><line id="XMLID_64_" x1="-2366.81" x2="-2302.06" y1="1540.19" y2="1427.94" class="st1"/><line id="XMLID_63_" x1="-2398.84" x2="-2385.39" y1="1596.86" y2="1573.54" class="st0"/><line id="XMLID_62_" x1="-2172.06" x2="-2431.06" y1="1652.44" y2="1652.44" class="st1"/><path id="XMLID_61_" d="M-2302.06,1456.07c-15.56,0-28.13-12.57-28.13-28.13s12.57-28.13,28.13-28.13 c15.56,0,28.13,12.57,28.13,28.13S-2286.5,1456.07-2302.06,1456.07" class="st3"/><path id="XMLID_60_" d="M-2431.56,1529.37c-15.56,0-28.13-12.57-28.13-28.13s12.57-28.13,28.13-28.13 s28.13,12.57,28.13,28.13S-2416,1529.37-2431.56,1529.37" class="st3"/><path id="XMLID_59_" d="M-2431.56,1680.58c-15.56,0-28.13-12.57-28.13-28.13s12.57-28.13,28.13-28.13 s28.13,12.57,28.13,28.13S-2416,1680.58-2431.56,1680.58" class="st3"/><path id="XMLID_58_" d="M-2302.06,1755.08c-15.56,0-28.13-12.57-28.13-28.13s12.57-28.13,28.13-28.13 s28.13,12.57,28.13,28.13S-2286.5,1755.08-2302.06,1755.08" class="st3"/><path id="XMLID_57_" d="M-2172.56,1680.58c-15.56,0-28.13-12.57-28.13-28.13s12.57-28.13,28.13-28.13 s28.13,12.57,28.13,28.13S-2157,1680.58-2172.56,1680.58" class="st3"/><path id="XMLID_73_" d="M-2172.56,1529.37c-15.56,0-28.13-12.57-28.13-28.13s12.57-28.13,28.13-28.13 s28.13,12.57,28.13,28.13S-2157,1529.37-2172.56,1529.37" class="st3"/></g><g id="XMLID_236_"><line id="XMLID_89_" x1="-1295.38" x2="-1339.62" y1="1703.36" y2="1677.79" class="st0"/><line id="XMLID_88_" x1="-1125.56" x2="-1125.56" y1="1551.94" y2="1601.94" class="st0"/><line id="XMLID_87_" x1="-1229.09" x2="-1225.93" y1="1471.72" y2="1477.21" class="st0"/><polyline id="XMLID_86_" points="-1384.56 1563.94 -1384.56 1502.44 -1253.56 1427.6 -1124.81 1502.72" class="st1"/><line id="XMLID_85_" x1="-1383.56" x2="-1383.56" y1="1624.94" y2="1598.94" class="st1"/><path id="XMLID_84_" d="M-1383.56,1652.11" class="st2"/><line id="XMLID_83_" x1="-1124.56" x2="-1254.06" y1="1652.11" y2="1726.95" class="st1"/><line id="XMLID_82_" x1="-1211.85" x2="-1150.03" y1="1501.12" y2="1608.29" class="st0"/><line id="XMLID_81_" x1="-1318.81" x2="-1254.06" y1="1540.19" y2="1427.94" class="st1"/><line id="XMLID_80_" x1="-1350.84" x2="-1337.39" y1="1596.86" y2="1573.54" class="st0"/><line id="XMLID_79_" x1="-1124.06" x2="-1383.06" y1="1653.44" y2="1653.44" class="st1"/><path id="XMLID_78_" d="M-1254.06,1456.07c-15.56,0-28.13-12.57-28.13-28.13s12.57-28.13,28.13-28.13 s28.13,12.57,28.13,28.13S-1238.5,1456.07-1254.06,1456.07" class="st3"/><path id="XMLID_77_" d="M-1383.56,1529.37c-15.56,0-28.13-12.57-28.13-28.13s12.57-28.13,28.13-28.13 s28.13,12.57,28.13,28.13S-1368,1529.37-1383.56,1529.37" class="st3"/><path id="XMLID_76_" d="M-1383.56,1680.58c-15.56,0-28.13-12.57-28.13-28.13s12.57-28.13,28.13-28.13 s28.13,12.57,28.13,28.13S-1368,1680.58-1383.56,1680.58" class="st3"/><path id="XMLID_75_" d="M-1254.06,1755.08c-15.56,0-28.13-12.57-28.13-28.13s12.57-28.13,28.13-28.13 s28.13,12.57,28.13,28.13S-1238.5,1755.08-1254.06,1755.08" class="st3"/><path id="XMLID_74_" d="M-1124.56,1680.58c-15.56,0-28.13-12.57-28.13-28.13s12.57-28.13,28.13-28.13 s28.13,12.57,28.13,28.13S-1109,1680.58-1124.56,1680.58" class="st3"/><path id="XMLID_90_" d="M-1124.56,1529.37c-15.56,0-28.13-12.57-28.13-28.13s12.57-28.13,28.13-28.13 s28.13,12.57,28.13,28.13S-1109,1529.37-1124.56,1529.37" class="st3"/></g><g id="XMLID_263_"><path id="XMLID_279_" d="M19.15,43.76c-0.18,0-0.36-0.05-0.53-0.14l-6.22-3.6c-0.5-0.29-0.68-0.94-0.39-1.44 c0.29-0.5,0.94-0.68,1.44-0.39l6.22,3.6c0.5,0.29,0.68,0.94,0.39,1.44C19.87,43.57,19.51,43.76,19.15,43.76z" class="st4"/><path id="XMLID_278_" d="M42.94,29.41c-0.58,0-1-0.47-1-1.06v-7.03c0-0.58,0.42-1.06,1-1.06s1,0.47,1,1.06v7.03 C43.94,28.94,43.53,29.41,42.94,29.41z" class="st4"/><path id="XMLID_277_" d="M28.92,11.94c-0.36,0-0.72-0.19-0.91-0.53l-0.45-0.77c-0.29-0.5-0.12-1.15,0.39-1.44 c0.5-0.29,1.15-0.12,1.44,0.39l0.45,0.77c0.29,0.5,0.12,1.15-0.39,1.44C29.28,11.9,29.1,11.94,28.92,11.94z" class="st4"/><path id="XMLID_275_" d="M6.75,35.5" class="st2"/><path id="XMLID_478_" d="M11.35,28.78c-0.18,0-0.36-0.05-0.53-0.14c-0.5-0.29-0.68-0.94-0.39-1.44l1.89-3.28 c0.29-0.5,0.94-0.68,1.44-0.39c0.5,0.29,0.68,0.94,0.39,1.44l-1.89,3.28C12.07,28.59,11.71,28.78,11.35,28.78z" class="st4"/><g id="XMLID_2_"><path id="XMLID_91_" d="M30.38,13.34c-0.5,0.29-0.68,0.94-0.39,1.44l8.7,15.08c0.2,0.34,0.55,0.53,0.91,0.53 c0.18,0,0.36-0.05,0.53-0.14c0.5-0.29,0.68-0.94,0.39-1.44l-8.7-15.08C31.53,13.22,30.88,13.05,30.38,13.34z" class="st3"/><path id="XMLID_104_" d="M5.94,18.06v4.96c0,0.58,0.42,1.06,1,1.06s1-0.47,1-1.06v-4.88c1-0.4,2.92-1.97,2.92-3.86 c0-0.32-0.12-0.62-0.19-0.92l11.48-6.58l-7.2,12.44c-0.29,0.5-0.13,1.15,0.38,1.44c0.17,0.1,0.34,0.14,0.52,0.14 c0.36,0,0.72-0.19,0.91-0.53l7.2-12.49c0.32,0.08,0.65,0.13,0.99,0.13c1.1,0,2.1-0.45,2.82-1.18l11.53,6.7 c-0.06,0.27-0.09,0.55-0.09,0.84c0,2.19,1.77,3.96,3.96,3.96c2.19,0,3.96-1.77,3.96-3.96c0-2.19-1.77-3.96-3.96-3.96 c-1.14,0-2.16,0.48-2.89,1.25L28.81,4.88c0.07-0.3,0.11-0.61,0.11-0.93c0-2.19-1.77-3.96-3.96-3.96s-3.96,1.77-3.96,3.96 c0,0.34,0.04,0.66,0.12,0.98L9.6,11.52c-0.72-0.75-1.73-1.21-2.85-1.21c-2.19,0-3.78,1.77-3.78,3.96 C2.96,16.06,3.94,17.56,5.94,18.06z" class="st3"/><path id="XMLID_105_" d="M43.18,31.78c-1.84,0-3.39,1.16-3.83,3.16H10.58c-0.36-2-1.35-2.68-2.74-3.03 c0-0.04,0.11-0.27,0.11-0.31v-3.66c0-0.58-0.42-1.06-1-1.06s-1,0.47-1,1.06v3.66c0,0.04-0.11,0.08-0.11,0.12 c-1.69,0.45-2.99,1.99-2.99,3.82c0,2.19,1.74,4.08,3.93,4.08c1.79,0,3.26-1.68,3.76-2.68h28.46l-11.25,6.38 c-0.71-0.7-1.69-1.2-2.78-1.2c-2.19,0-3.96,1.74-3.96,3.93c0,2.19,1.77,3.94,3.96,3.94s3.96-1.78,3.96-3.97 c0-0.34-0.04-0.68-0.13-1l11.58-6.69c0.72,0.72,1.71,1.16,2.81,1.16c2.19,0,3.96-1.67,3.96-3.86 C47.14,33.45,45.37,31.78,43.18,31.78z" class="st3"/></g></g><g id="XMLID_359_"><line id="XMLID_376_" x1="1246.62" x2="1202.38" y1="-643.14" y2="-668.71" class="st0"/><line id="XMLID_375_" x1="1416.44" x2="1416.44" y1="-795.06" y2="-745.06" class="st0"/><line id="XMLID_374_" x1="1312.91" x2="1316.07" y1="-874.78" y2="-869.29" class="st0"/><polyline id="XMLID_373_" points="1157.44 -783.06 1157.44 -844.06 1288.44 -918.9 1417.19 -844.03" class="st6"/><line id="XMLID_372_" x1="1158.44" x2="1158.44" y1="-722.06" y2="-748.06" class="st6"/><path id="XMLID_371_" d="M1158.44-694.39" class="st2"/><line id="XMLID_370_" x1="1417.44" x2="1287.94" y1="-694.39" y2="-619.55" class="st6"/><line id="XMLID_369_" x1="1330.15" x2="1391.97" y1="-845.38" y2="-738.21" class="st6"/><line id="XMLID_368_" x1="1223.19" x2="1287.94" y1="-806.31" y2="-918.56" class="st6"/><line id="XMLID_367_" x1="1191.16" x2="1204.61" y1="-749.64" y2="-772.96" class="st0"/><line id="XMLID_366_" x1="1417.94" x2="1158.94" y1="-693.56" y2="-693.56" class="st6"/><path id="XMLID_365_" d="M1287.94-890.43c-15.56,0-28.13-12.57-28.13-28.13s12.57-28.13,28.13-28.13s28.13,12.57,28.13,28.13 S1303.5-890.43,1287.94-890.43"/><path id="XMLID_364_" d="M1158.44-817.13c-15.56,0-28.13-12.57-28.13-28.13s12.57-28.13,28.13-28.13s28.13,12.57,28.13,28.13 S1174-817.13,1158.44-817.13"/><path id="XMLID_363_" d="M1158.44-665.92c-15.56,0-28.13-12.57-28.13-28.13s12.57-28.13,28.13-28.13s28.13,12.57,28.13,28.13 S1174-665.92,1158.44-665.92"/><path id="XMLID_362_" d="M1287.94-591.42c-15.56,0-28.13-12.57-28.13-28.13s12.57-28.13,28.13-28.13s28.13,12.57,28.13,28.13 S1303.5-591.42,1287.94-591.42"/><path id="XMLID_361_" d="M1417.44-665.92c-15.56,0-28.13-12.57-28.13-28.13s12.57-28.13,28.13-28.13s28.13,12.57,28.13,28.13 S1433-665.92,1417.44-665.92"/><path id="XMLID_360_" d="M1417.44-817.13c-15.56,0-28.13-12.57-28.13-28.13s12.57-28.13,28.13-28.13s28.13,12.57,28.13,28.13 S1433-817.13,1417.44-817.13"/></g><g id="XMLID_377_"><line id="XMLID_394_" x1="1738.62" x2="1694.38" y1="-643.14" y2="-668.71" class="st0"/><line id="XMLID_393_" x1="1908.44" x2="1908.44" y1="-795.06" y2="-745.06" class="st0"/><line id="XMLID_392_" x1="1804.91" x2="1808.07" y1="-874.78" y2="-869.29" class="st0"/><line id="XMLID_385_" x1="1683.16" x2="1696.61" y1="-749.64" y2="-772.96" class="st0"/></g><g id="XMLID_395_" class="st7"><polyline id="XMLID_391_" points="1649.44 -783.06 1649.44 -844.06 1780.44 -918.9 1909.19 -844.03" class="st6"/><line id="XMLID_390_" x1="1650.44" x2="1650.44" y1="-722.06" y2="-748.06" class="st6"/><path id="XMLID_389_" d="M1650.44-694.39" class="st2"/><line id="XMLID_388_" x1="1909.44" x2="1779.94" y1="-694.39" y2="-619.55" class="st6"/><line id="XMLID_387_" x1="1822.15" x2="1883.97" y1="-845.38" y2="-738.21" class="st6"/><line id="XMLID_386_" x1="1715.19" x2="1779.94" y1="-806.31" y2="-918.56" class="st6"/><line id="XMLID_384_" x1="1909.94" x2="1650.94" y1="-693.56" y2="-693.56" class="st6"/><path id="XMLID_383_" d="M1779.94-890.43c-15.56,0-28.13-12.57-28.13-28.13s12.57-28.13,28.13-28.13s28.13,12.57,28.13,28.13 S1795.5-890.43,1779.94-890.43"/><path id="XMLID_382_" d="M1650.44-817.13c-15.56,0-28.13-12.57-28.13-28.13s12.57-28.13,28.13-28.13s28.13,12.57,28.13,28.13 S1666-817.13,1650.44-817.13"/><path id="XMLID_381_" d="M1650.44-665.92c-15.56,0-28.13-12.57-28.13-28.13s12.57-28.13,28.13-28.13s28.13,12.57,28.13,28.13 S1666-665.92,1650.44-665.92"/><path id="XMLID_380_" d="M1779.94-591.42c-15.56,0-28.13-12.57-28.13-28.13s12.57-28.13,28.13-28.13s28.13,12.57,28.13,28.13 S1795.5-591.42,1779.94-591.42"/><path id="XMLID_379_" d="M1909.44-665.92c-15.56,0-28.13-12.57-28.13-28.13s12.57-28.13,28.13-28.13s28.13,12.57,28.13,28.13 S1925-665.92,1909.44-665.92"/><path id="XMLID_378_" d="M1909.44-817.13c-15.56,0-28.13-12.57-28.13-28.13s12.57-28.13,28.13-28.13s28.13,12.57,28.13,28.13 S1925-817.13,1909.44-817.13"/></g><g id="XMLID_410_"><path id="XMLID_425_" d="M1780.61-171.64c-1.27,0-2.56-0.32-3.75-1.01l-44.23-25.56c-3.59-2.07-4.81-6.66-2.74-10.25 c2.07-3.59,6.66-4.81,10.25-2.74l44.23,25.56c3.59,2.07,4.81,6.66,2.74,10.25C1785.72-172.99,1783.2-171.64,1780.61-171.64z" class="st4"/><path id="XMLID_424_" d="M1950.44-273.56c-4.14,0-7.5-3.36-7.5-7.5v-50c0-4.14,3.36-7.5,7.5-7.5s7.5,3.36,7.5,7.5v50 C1957.94-276.91,1954.59-273.56,1950.44-273.56z" class="st4"/><path id="XMLID_423_" d="M1850.08-397.79c-2.59,0-5.11-1.35-6.5-3.75l-3.17-5.49c-2.07-3.59-0.84-8.17,2.75-10.24 c3.58-2.07,8.17-0.84,10.24,2.75l3.17,5.49c2.07,3.59,0.84,8.17-2.75,10.24C1852.64-398.12,1851.35-397.79,1850.08-397.79z" class="st4"/><path id="XMLID_440_" d="M1725.15-278.14c-1.27,0-2.56-0.32-3.74-1c-3.59-2.07-4.82-6.66-2.75-10.24l13.45-23.32 c2.07-3.59,6.66-4.82,10.24-2.75c3.59,2.07,4.82,6.66,2.75,10.24l-13.45,23.32C1730.27-279.48,1727.74-278.14,1725.15-278.14z" class="st4"/><g id="XMLID_409_"><path id="XMLID_416_" d="M1860.41-387.88c-3.59,2.07-4.82,6.66-2.75,10.24l61.82,107.17c1.39,2.41,3.91,3.75,6.5,3.75 c1.27,0,2.56-0.32,3.74-1c3.59-2.07,4.82-6.66,2.75-10.24l-61.82-107.17C1868.58-388.72,1863.99-389.95,1860.41-387.88z" class="st3"/><path id="XMLID_441_" d="M1683.94-354.43v35.38c0,4.14,3.36,7.5,7.5,7.5s7.5-3.36,7.5-7.5v-34.83 c12.41-2.93,21.63-14.05,21.63-27.37c0-2.2-0.26-4.34-0.74-6.39l81.8-46.73l-50.95,88.32c-2.07,3.59-0.84,8.17,2.75,10.24 c1.18,0.68,2.47,1,3.74,1c2.59,0,5.12-1.35,6.5-3.75l51.2-88.76c2.25,0.58,4.62,0.89,7.05,0.89c7.87,0,14.97-3.22,20.07-8.41 l81.93,47.64c-0.41,1.92-0.63,3.9-0.63,5.94c0,15.56,12.57,28.13,28.13,28.13s28.13-12.57,28.13-28.13s-12.57-28.13-28.13-28.13 c-8.11,0-15.4,3.42-20.53,8.89l-81.63-47.47c0.51-2.12,0.78-4.32,0.78-6.6c0-15.56-12.57-28.13-28.13-28.13 s-28.13,12.57-28.13,28.13c0,2.38,0.3,4.69,0.85,6.89l-82,46.85c-5.11-5.28-12.27-8.57-20.22-8.57 c-15.56,0-28.13,12.57-28.13,28.13C1664.31-368.66,1672.55-358.03,1683.94-354.43z" class="st3"/><path id="XMLID_442_" d="M1951.44-258.18c-13.14,0-24.15,8.97-27.25,21.13H1719.7c-2.5-9.77-10.1-17.47-19.81-20.13 c0.03-0.29,0.06-0.58,0.06-0.87v-26c0-4.14-3.36-7.5-7.5-7.5s-7.5,3.36-7.5,7.5v26c0,0.3,0.02,0.59,0.06,0.87 c-11.93,3.26-20.69,14.15-20.69,27.13c0,15.56,12.57,28.13,28.13,28.13c12.78,0,23.54-8.48,26.97-20.14h202.62l-80.37,46.44 c-5.07-4.99-12.03-8.07-19.73-8.07c-15.56,0-28.13,12.57-28.13,28.13s12.57,28.13,28.13,28.13s28.13-12.57,28.13-28.13 c0-2.44-0.31-4.82-0.9-7.08l82.32-47.57c5.09,5.12,12.14,8.28,19.94,8.28c15.56,0,28.13-12.57,28.13-28.13 S1967-258.18,1951.44-258.18z" class="st3"/></g></g><path id="XMLID_460_" d="M453.61,1718.86c-1.27,0-2.56-0.32-3.75-1.01l-44.23-25.56c-3.59-2.07-4.81-6.66-2.74-10.25	c2.07-3.59,6.66-4.81,10.25-2.74l44.23,25.56c3.59,2.07,4.81,6.66,2.74,10.25C458.72,1717.51,456.2,1718.86,453.61,1718.86z" class="st4"/><path id="XMLID_459_" d="M623.44,1617.44c-4.14,0-7.5-3.36-7.5-7.5v-50c0-4.14,3.36-7.5,7.5-7.5s7.5,3.36,7.5,7.5v50	C630.94,1614.09,627.59,1617.44,623.44,1617.44z" class="st4"/><path id="XMLID_458_" d="M523.08,1492.71c-2.59,0-5.11-1.35-6.5-3.75l-3.17-5.49c-2.07-3.59-0.84-8.17,2.75-10.24	c3.59-2.07,8.17-0.84,10.24,2.75l3.17,5.49c2.07,3.59,0.84,8.17-2.75,10.24C525.64,1492.38,524.35,1492.71,523.08,1492.71z" class="st4"/><path id="XMLID_453_" d="M598.98,1623.79c-2.59,0-5.11-1.35-6.5-3.75l-61.82-107.17c-2.07-3.59-0.84-8.17,2.75-10.24	c3.59-2.07,8.17-0.84,10.24,2.75l61.82,107.17c2.07,3.59,0.84,8.17-2.75,10.24C601.54,1623.47,600.25,1623.79,598.98,1623.79z" class="st4"/><path id="XMLID_462_" d="M398.15,1612.36c-1.27,0-2.56-0.32-3.74-1c-3.59-2.07-4.82-6.66-2.75-10.24l13.45-23.32	c2.07-3.59,6.66-4.82,10.24-2.75c3.59,2.07,4.82,6.66,2.75,10.24l-13.45,23.32C403.27,1611.02,400.74,1612.36,398.15,1612.36z" class="st4"/><g id="XMLID_451_"><path id="XMLID_461_" d="M356.94,1536.07v35.88c0,4.14,3.36,7.5,7.5,7.5s7.5-3.36,7.5-7.5v-35.33 c12.41-2.93,21.63-14.05,21.63-27.37c0-2.2-0.26-4.34-0.74-6.39l81.8-46.73l-50.95,88.32c-2.07,3.59-0.84,8.17,2.75,10.24 c1.18,0.68,2.47,1,3.74,1c2.59,0,5.11-1.35,6.5-3.75l51.2-88.76c2.25,0.58,4.62,0.89,7.05,0.89c7.85,0,14.94-3.21,20.04-8.38 l81.92,47.79c-0.39,1.86-0.59,3.79-0.59,5.76c0,15.56,12.57,28.13,28.13,28.13s28.13-12.57,28.13-28.13s-12.57-28.13-28.13-28.13 c-8.17,0-15.52,3.47-20.65,9.02l-81.51-47.56c0.51-2.13,0.79-4.35,0.79-6.64c0-15.56-12.57-28.13-28.13-28.13 c-15.56,0-28.13,12.57-28.13,28.13c0,2.38,0.3,4.69,0.85,6.89l-82,46.85c-5.11-5.28-12.27-8.57-20.22-8.57 c-15.56,0-28.13,12.57-28.13,28.13C337.31,1521.84,345.55,1532.47,356.94,1536.07z" class="st3"/><path id="XMLID_464_" d="M624.44,1632.32c-13.32,0-24.44,9.22-27.37,21.63H392.81c-2.36-9.99-10.03-17.91-19.89-20.62 c0.01-0.13,0.02-0.25,0.02-0.38v-26c0-4.14-3.36-7.5-7.5-7.5s-7.5,3.36-7.5,7.5v26c0,0.13,0.01,0.26,0.02,0.38 c-11.91,3.27-20.65,14.16-20.65,27.12c0,15.56,12.57,28.13,28.13,28.13c12.59,0,23.23-8.24,26.83-19.64h201.9l-79.5,45.94 c-5.07-4.99-12.03-8.07-19.73-8.07c-15.56,0-28.13,12.57-28.13,28.13s12.57,28.13,28.13,28.13s28.13-12.57,28.13-28.13 c0-2.44-0.31-4.82-0.9-7.08l82.32-47.57c5.09,5.12,12.14,8.28,19.94,8.28c15.56,0,28.13-12.57,28.13-28.13 S640,1632.32,624.44,1632.32z" class="st3"/></g></svg>